<?xml version="1.0" encoding="UTF-8" standalone="no" ?>
<!DOCTYPE svg PUBLIC "-//W3C//DTD SVG 1.1//EN" "http://www.w3.org/Graphics/SVG/1.1/DTD/svg11.dtd">
<svg xmlns="http://www.w3.org/2000/svg" xmlns:xlink="http://www.w3.org/1999/xlink" version="1.1" width="978" height="189" viewBox="0 0 978 189" xml:space="preserve">
<desc>Created with Fabric.js 5.2.4</desc>
<defs>
</defs>
<rect x="0" y="0" width="100%" height="100%" fill="transparent"></rect>
<g transform="matrix(1 0 0 1 489 94.5)" id="48c9799b-716a-43dd-8cec-d092eb61b380"  >
<rect style="stroke: none; stroke-width: 1; stroke-dasharray: none; stroke-linecap: butt; stroke-dashoffset: 0; stroke-linejoin: miter; stroke-miterlimit: 4; fill: rgb(255,255,255); fill-rule: nonzero; opacity: 1; visibility: hidden;" vector-effect="non-scaling-stroke"  x="-489" y="-94.5" rx="0" ry="0" width="978" height="189" />
</g>
<g transform="matrix(Infinity NaN NaN Infinity 0 0)" id="6ea831ec-2681-49fa-9f21-0992da85f73b"  >
</g>
<g transform="matrix(0.9 0 0 0.9 482.12 93.17)"  >
<g style="" vector-effect="non-scaling-stroke"   >
		<g transform="matrix(1 0 0 1 -459.34 0)" id="polygon134"  >
<polygon style="stroke: none; stroke-width: 1; stroke-dasharray: none; stroke-linecap: butt; stroke-dashoffset: 0; stroke-linejoin: miter; stroke-miterlimit: 4; fill: rgb(255,255,255); fill-rule: evenodd; opacity: 1;" vector-effect="non-scaling-stroke"  points="-29.88,-94.43 -29.88,94.43 29.88,94.43 29.88,-94.43 " />
</g>
		<g transform="matrix(1 0 0 1 -234.36 0)" id="polygon132"  >
<polygon style="stroke: none; stroke-width: 1; stroke-dasharray: none; stroke-linecap: butt; stroke-dashoffset: 0; stroke-linejoin: miter; stroke-miterlimit: 4; fill: rgb(255,255,255); fill-rule: evenodd; opacity: 1;" vector-effect="non-scaling-stroke"  points="99.85,94.44 153.21,94.44 153.21,-94.44 57.08,-94.44 0.13,18.5 -57.38,-94.29 -153.06,-93.99 -153.21,94.44 -99.95,94.44 -99.88,-42.17 -89.21,-42.17 -22.4,94.28 22.15,94.28 88.99,-42.17 99.85,-42.17 " />
</g>
		<g transform="matrix(1 0 0 1 69.41 0)" id="path136"  >
<path style="stroke: none; stroke-width: 1; stroke-dasharray: none; stroke-linecap: butt; stroke-dashoffset: 0; stroke-linejoin: miter; stroke-miterlimit: 4; fill: rgb(255,255,255); fill-rule: evenodd; opacity: 1;" vector-effect="non-scaling-stroke"  transform=" translate(-558.62, -94.44)" d="M 514.564 0 L 418.57 188.876 L 482.414 188.876 L 499.11699999999996 156.75300000000001 L 618.4079999999999 156.75300000000001 L 634.6809999999999 188.876 L 698.679 188.876 L 602.633 0 Z M 561.653 42.935 L 555.777 42.935 L 519.4380000000001 114.468 L 597.5870000000001 114.468 z" stroke-linecap="round" />
</g>
		<g transform="matrix(1 0 0 1 350.46 0)" id="polygon138"  >
<polygon style="stroke: none; stroke-width: 1; stroke-dasharray: none; stroke-linecap: butt; stroke-dashoffset: 0; stroke-linejoin: miter; stroke-miterlimit: 4; fill: rgb(255,255,255); fill-rule: evenodd; opacity: 1;" vector-effect="non-scaling-stroke"  points="138.75,94.44 49.87,-5.88 124.3,-94.44 51.45,-94.44 -0.04,-33.07 -50.05,-94.44 -124.22,-94.44 -49.36,-5.79 -138.75,94.44 -59.69,94.44 0.47,26.19 59.94,94.44 " />
</g>
</g>
</g>
</svg>