<?xml version="1.0" encoding="UTF-8" standalone="no"?>
<!-- Created with Inkscape (http://www.inkscape.org/) -->

<svg
   version="1.1"
   id="svg1"
   width="366.66666"
   height="78.666664"
   viewBox="0 0 366.66666 78.666664"
   sodipodi:docname="motion-picture-association-of-america-r-rating-seeklogo.eps"
   xmlns:inkscape="http://www.inkscape.org/namespaces/inkscape"
   xmlns:sodipodi="http://sodipodi.sourceforge.net/DTD/sodipodi-0.dtd"
   xmlns="http://www.w3.org/2000/svg"
   xmlns:svg="http://www.w3.org/2000/svg">
  <defs
     id="defs1" />
  <sodipodi:namedview
     id="namedview1"
     pagecolor="#ffffff"
     bordercolor="#000000"
     borderopacity="0.25"
     inkscape:showpageshadow="2"
     inkscape:pageopacity="0.0"
     inkscape:pagecheckerboard="0"
     inkscape:deskcolor="#d1d1d1">
    <inkscape:page
       x="0"
       y="0"
       inkscape:label="1"
       id="page1"
       width="366.66666"
       height="78.666664"
       margin="0"
       bleed="0" />
  </sodipodi:namedview>
  <g
     id="g1"
     inkscape:groupmode="layer"
     inkscape:label="1">
    <path
       id="path1"
       d="m 9.40234,2.94141 c 1178.81766,0 1421.63766,0 2600.45766,0 0,194.09359 0,388.19559 0,582.29259 -1178.82,0 -1421.64,0 -2600.45766,0 z M 37.75,31.2852 H 579.91 V 556.887 H 37.75 Z M 601.848,389.848 H 2581.51 V 556.887 H 601.848 Z m 0,-358.5628 H 2581.51 V 371.125 H 601.848 V 31.2852"
       style="fill:#231f20;fill-opacity:1;fill-rule:evenodd;stroke:none"
       transform="matrix(0.13333333,0,0,-0.13333333,0,78.666667)" />
    <path
       id="path2"
       d="m 257.094,449.773 c 3,18.602 4.203,25.2 37.199,25.2 48.004,0 72.602,-25.797 72.602,-86.399 0,-78 -31.2,-91.199 -109.801,-91.801 z m 263.402,-345 c -7.199,0 -16.199,0.602 -24.598,11.403 l -120.605,171 c 32.402,10.199 94.203,28.801 94.203,102.601 0,100.797 -127.199,105.598 -169.203,105.598 H 107.094 v -15 c 34.199,-2.398 52.801,-3.602 52.801,-55.199 V 159.973 c 0,-48.598 -12,-50.399 -52.801,-55.2 V 89.7734 h 202.801 v 14.9996 c -39.598,5.403 -52.801,7.204 -52.801,55.2 v 117.601 h 16.199 L 397.496,89.7734 h 123 v 14.9996"
       style="fill:#231f20;fill-opacity:1;fill-rule:evenodd;stroke:none"
       transform="matrix(0.13333333,0,0,-0.13333333,0,78.666667)" />
    <path
       id="path3"
       d="m 1006.43,492.055 h 13.2 c 6.6,0 11.4,-2.879 11.4,-9 0,-6 -4.68,-8.16 -13.44,-8.16 h -11.16 z m 8.64,-36.117 c 13.2,0 15.12,-3.723 15.12,-15.004 0,-7.676 0.72,-13.2 1.44,-15.118 h 28.68 v 2.637 c -3.36,0 -3,3.844 -3,15.121 0,17.403 -5.52,19.563 -14.64,22.922 10.08,2.762 14.52,11.16 14.52,21.121 0,16.797 -9.48,24.598 -38.28,24.598 h -40.801 v -86.399 h 28.321 v 30.122 z m 130.32,-30.122 v 20.161 h -43.8 v 13.558 h 35.64 v 20.16 h -35.64 v 12.36 h 42.12 v 20.16 h -70.44 v -86.399 z m 85.68,61.317 c -2.04,15.121 -12.96,27.363 -36.96,27.363 -21.6,0 -37.44,-9.238 -37.44,-27.601 0,-33 49.68,-24 49.68,-37.079 0,-4.082 -4.68,-6.359 -11.76,-6.359 -2.76,0 -5.76,0.719 -8.04,2.16 -2.4,1.438 -4.08,3.719 -4.68,6.84 h -27.12 c 0.6,-15.602 15.48,-28.941 38.28,-28.941 23.76,0 40.43,9.742 40.43,29.777 0,31.441 -49.67,23.402 -49.67,36.363 0,3.117 2.76,4.918 9,4.918 2.76,0 5.28,-0.476 7.32,-1.558 2.04,-1.078 3.6,-2.879 4.08,-5.883 z m 10.07,2.402 h 25.45 v -63.719 h 28.32 v 63.719 h 25.43 v 22.68 h -79.2 z m 118.56,2.52 h 13.21 c 6.59,0 11.39,-2.879 11.39,-9 0,-6 -4.67,-8.16 -13.44,-8.16 h -11.16 z m 8.64,-36.117 c 13.21,0 15.12,-3.723 15.12,-15.004 0,-7.676 0.72,-13.2 1.44,-15.118 h 28.68 v 2.637 c -3.36,0 -3,3.844 -3,15.121 0,17.403 -5.52,19.563 -14.64,22.922 10.08,2.762 14.52,11.16 14.52,21.121 0,16.797 -9.48,24.598 -38.28,24.598 h -40.8 v -86.399 h 28.32 v 30.122 z m 86.52,-30.122 v 86.399 h -28.32 v -86.399 z m 98.4,53.399 c -2.28,22.199 -17.04,35.281 -43.44,35.281 -24.12,0 -43.08,-17.402 -43.08,-45.363 0,-28.078 17.28,-45.617 45.85,-45.617 22.79,0 38.75,13.461 41.27,35.781 h -27.24 c -1.08,-8.281 -5.39,-14.641 -14.52,-14.641 -14.4,0 -17.04,11.399 -17.04,23.52 0,16.679 6.01,25.199 15.96,25.199 8.88,0 14.52,-5.16 15.36,-14.16 z m 7.92,10.32 h 25.45 v -63.719 h 28.32 v 63.719 h 25.43 v 22.68 h -79.2 z m 164.16,-63.719 v 20.161 h -43.8 v 13.558 h 35.64 v 20.16 h -35.64 v 12.36 h 42.12 v 20.16 h -70.44 v -86.399 z m 41.52,66.239 h 5.4 c 15.12,0 21,-4.797 21,-22.797 0,-16.324 -7.2,-23.281 -20.4,-23.281 h -6 z m 8.88,-66.239 c 27.72,0 45.84,12.481 45.84,45 0,28.438 -17.28,41.399 -45.12,41.399 h -37.92 v -86.399 h 37.2"
       style="fill:#231f20;fill-opacity:1;fill-rule:evenodd;stroke:none"
       transform="matrix(0.13333333,0,0,-0.13333333,0,78.666667)" />
    <path
       id="path4"
       d="m 719.914,311.781 v -54.48 c 0,-18.719 -9.84,-23.641 -18.598,-23.641 -8.562,0 -17.902,5.16 -17.902,23.883 v 54.238 h -9.539 v -57.48 c 0,-16.078 8.16,-30.977 27.141,-30.977 19.398,0 28.437,14.899 28.437,32.539 v 55.918 z m 71.539,-69.601 h -0.199 l -35.34,69.601 h -11.301 v -86.16 h 9.239 v 69.598 h 0.203 l 35.918,-69.598 h 10.718 v 86.16 h -9.238 z m 24.699,-16.559 h 28.243 c 23.218,0 30.097,24.961 30.097,44.281 0,24.84 -11.32,41.879 -29.719,41.879 h -28.621 z m 9.543,76.199 h 17.797 c 13,0 21.16,-10.918 21.16,-32.64 0,-21.719 -8.062,-33.598 -20.461,-33.598 h -18.496 z m 114.118,-65.879 h -42.602 v 28.801 h 38.66 v 10.317 h -38.66 v 26.402 h 41.918 v 10.32 h -51.457 v -86.16 h 52.141 z m 23.238,26.641 h 23.14 c 11.399,0 12.582,-8.281 12.582,-15.359 0,-3.243 0.297,-16.321 1.677,-21.602 h 11.7 v 1.918 c -2.96,2.043 -3.44,3.844 -3.54,8.641 l -0.6,15.601 c -0.38,12 -4.4,14.16 -8.44,16.199 4.52,3.243 9.84,7.922 9.84,20.641 0,18.238 -11.621,23.16 -23.219,23.16 h -32.679 v -86.16 h 9.539 z m 0,39.238 h 23.82 c 4.719,0 12.699,-1.078 12.699,-14.398 0,-12.723 -7.379,-14.883 -14.379,-14.883 h -22.14 z m 115.519,8.16 h -6.78 c -2.76,-13.8 -7.38,-15.121 -18.6,-16.078 V 285.5 h 16.14 v -59.879 h 9.24 z m 23.04,-12.117 h 38.08 c -13.28,-18.843 -25.88,-49.082 -28.24,-72.242 h 9.54 c 5.02,37.68 21.56,64.559 28.44,73.32 v 9.239 h -47.82 z m 96.64,-35.281 h 23.14 c 11.4,0 12.58,-8.281 12.58,-15.359 0,-3.243 0.3,-16.321 1.68,-21.602 h 11.7 v 1.918 c -2.96,2.043 -3.44,3.844 -3.54,8.641 l -0.6,15.601 c -0.38,12 -4.4,14.16 -8.44,16.199 4.52,3.243 9.84,7.922 9.84,20.641 0,18.238 -11.62,23.16 -23.22,23.16 h -32.68 v -86.16 h 9.54 z m 0,39.238 h 23.82 c 4.72,0 12.7,-1.078 12.7,-14.398 0,-12.723 -7.38,-14.883 -14.38,-14.883 h -22.14 z m 113.44,-65.879 h -42.6 v 28.801 h 38.66 v 10.317 h -38.66 v 26.402 h 41.92 v 10.32 h -51.46 v -86.16 h 52.14 z m 46.36,7.438 7.38,-6.957 c -2.94,-1.801 -6.48,-2.762 -10.42,-2.762 -15.36,0 -24.6,14.762 -24.6,35.043 0,20.277 9.24,35.039 24.6,35.039 15.36,0 24.6,-14.762 24.6,-35.039 0,-11.043 -2.76,-20.519 -7.78,-26.64 l -8.94,8.519 z m 30.8,-17.516 -9.64,9.117 c 7.48,9.243 10.24,22.801 10.24,33.723 0,18.598 -8.06,45.356 -34.44,45.356 -26.38,0 -34.44,-26.758 -34.44,-45.356 0,-18.601 8.06,-45.379 34.44,-45.379 7.48,0 13.58,2.156 18.2,5.778 l 10.82,-10.223 z m 57.06,85.918 v -54.48 c 0,-18.719 -9.84,-23.641 -18.6,-23.641 -8.56,0 -17.9,5.16 -17.9,23.883 v 54.238 h -9.54 v -57.48 c 0,-16.078 8.16,-30.977 27.14,-30.977 19.4,0 28.44,14.899 28.44,32.539 v 55.918 z m 35.72,0 h -9.54 v -86.16 h 9.54 z m 27.06,-49.199 h 23.14 c 11.4,0 12.58,-8.281 12.58,-15.359 0,-3.243 0.29,-16.321 1.68,-21.602 h 11.7 v 1.918 c -2.96,2.043 -3.45,3.844 -3.54,8.641 l -0.61,15.601 c -0.37,12 -4.39,14.16 -8.43,16.199 4.51,3.243 9.84,7.922 9.84,20.641 0,18.238 -11.62,23.16 -23.22,23.16 h -32.69 v -86.16 h 9.55 z m 0,39.238 h 23.82 c 4.72,0 12.7,-1.078 12.7,-14.398 0,-12.723 -7.39,-14.883 -14.39,-14.883 h -22.13 z m 113.44,-65.879 h -42.61 v 28.801 h 38.66 v 10.317 h -38.66 v 26.402 h 41.93 v 10.32 h -51.47 v -86.16 h 52.15 z m 64.07,50.641 c -0.4,9.481 -2.86,27.477 -27.56,27.477 -17.12,0 -24.3,-13.196 -24.3,-26.637 0,-15 10.43,-18.961 15.05,-20.281 l 14.47,-4.078 c 11.62,-3.36 15.07,-6.243 15.07,-15.243 0,-12.359 -11.63,-14.519 -18.51,-14.519 -9.06,0 -19.47,4.558 -19.47,20.16 h -8.97 c 0,-8.039 1.18,-15.238 7.18,-21.84 3.16,-3.48 8.29,-8.297 21.36,-8.297 12.11,0 27.64,5.656 27.64,26.059 0,13.68 -6.88,20.398 -16.02,23.039 l -20.19,5.641 c -4.13,1.199 -8.36,3.601 -8.36,10.917 0,13.079 10.14,15.122 16.13,15.122 7.98,0 17.05,-4.204 17.52,-17.52 z m 80.9,-35.879 6.99,-25.082 h 10.43 l -25.57,86.16 h -10.84 l -26.57,-86.16 h 9.84 l 7.39,25.082 z m -25.38,10.317 11.3,37.921 h 0.2 l 10.44,-37.921 z m 106.8,24.839 c -1.38,14.403 -10.84,28.2 -29.04,28.2 -20.56,0 -32.96,-18.356 -32.96,-44.879 0,-33.117 15.74,-45.856 31.78,-45.856 5.32,0 26.96,1.438 30.9,33.977 h -9.26 c -3.24,-20.039 -13.96,-23.641 -20.16,-23.641 -17.52,0 -23.42,15.602 -23.42,35.883 0,22.68 10.34,34.199 23.12,34.199 6.8,0 17.12,-2.762 19.78,-17.883 z m 71.04,0 c -1.38,14.403 -10.84,28.2 -29.04,28.2 -20.56,0 -32.96,-18.356 -32.96,-44.879 0,-33.117 15.74,-45.856 31.78,-45.856 5.32,0 26.96,1.438 30.9,33.977 h -9.26 c -3.24,-20.039 -13.96,-23.641 -20.16,-23.641 -17.52,0 -23.42,15.602 -23.42,35.883 0,22.68 10.34,34.199 23.12,34.199 6.8,0 17.12,-2.762 19.78,-17.883 z m 67.6,-17.156 c 0,-20.281 -9.24,-35.043 -24.6,-35.043 -15.36,0 -24.6,14.762 -24.6,35.043 0,20.277 9.24,35.039 24.6,35.039 15.36,0 24.6,-14.762 24.6,-35.039 z m 9.84,0 c 0,18.598 -8.06,45.356 -34.44,45.356 -26.38,0 -34.44,-26.758 -34.44,-45.356 0,-18.601 8.06,-45.379 34.44,-45.379 26.38,0 34.44,26.778 34.44,45.379 z m 78.72,-43.082 v 86.16 h -13.58 l -20.08,-72.84 h -0.2 l -20.18,72.84 h -13.66 v -86.16 h 9.24 V 276.5 c 0,2.52 -0.2,13.441 -0.2,21.363 h 0.2 l 19.88,-72.242 h 9.46 l 19.88,72.359 h 0.2 c 0,-8.039 -0.2,-18.96 -0.2,-21.48 v -50.879 z m 25.08,76.199 h 19.38 c 7.88,0 13.98,-3.48 13.98,-14.398 0,-11.641 -5.8,-15.481 -14.36,-15.481 h -19 z m 0,-39.84 h 22.24 c 15.35,0 20.96,13.563 20.96,25.563 0,13.918 -7.88,24.238 -20.96,24.238 h -31.79 v -86.16 h 9.55 z m 80.17,-11.277 6.99,-25.082 h 10.43 l -25.57,86.16 h -10.84 l -26.56,-86.16 h 9.83 l 7.39,25.082 z m -25.37,10.317 11.29,37.921 h 0.21 l 10.44,-37.921 z m 98.4,-18.84 h -0.21 l -35.34,69.601 h -11.29 v -86.16 h 9.23 v 69.598 h 0.2 l 35.93,-69.598 h 10.71 v 86.16 H 2254 Z m 54.29,18.121 26.66,51.48 h -11.22 l -20.26,-41.402 -20.26,41.402 h -11.12 l 26.66,-51.48 v -34.68 h 9.54 z m 46.56,51.48 h -9.54 v -86.16 h 9.54 z m 63.19,-69.601 h -0.21 l -35.34,69.601 h -11.29 v -86.16 h 9.23 v 69.598 h 0.2 l 35.92,-69.598 h 10.72 v 86.16 h -9.23 z m 54.99,19.562 h 22.04 c 0,-9.238 -1.58,-16.922 -7.78,-22.922 -5.2,-5.039 -10.92,-5.519 -14.46,-5.519 -18.79,0 -23.52,18 -23.52,35.519 0,22.563 10.44,34.922 23.12,34.922 7.78,0 18.12,-3.121 21.16,-18.121 h 9.26 c -2.08,19.32 -16.74,28.438 -29.92,28.438 -23.04,0 -33.46,-23.637 -33.46,-44.637 0,-9.121 0.3,-23.883 11.12,-36.359 3.64,-4.321 9.54,-9.739 21.64,-9.739 9.66,0 18.52,5.297 23.34,13.457 l 2.26,-11.16 h 6.2 v 46.082 h -31 z M 887.551,163.102 h 19.383 c 7.879,0 13.98,-3.481 13.98,-14.399 0,-11.64 -5.805,-15.48 -14.363,-15.48 h -19 z m 0,-39.84 h 22.242 c 15.355,0 20.957,13.562 20.957,25.558 0,13.922 -7.879,24.243 -20.957,24.243 H 878.012 V 86.9023 h 9.539 z m 80.179,-11.278 6.981,-25.0817 h 10.441 L 959.57,173.063 H 948.73 L 922.172,86.9023 h 9.84 l 7.379,25.0817 z m -25.378,10.317 11.296,37.922 h 0.204 l 10.437,-37.922 z m 62.278,1.562 h 23.14 c 11.4,0 12.58,-8.281 12.58,-15.359 0,-3.242 0.3,-16.3204 1.68,-21.6017 h 11.7 v 1.918 c -2.96,2.043 -3.44,3.8438 -3.54,8.6406 l -0.6,15.6021 c -0.38,12 -4.4,14.16 -8.44,16.199 4.52,3.242 9.84,7.922 9.84,20.64 0,18.239 -11.62,23.161 -23.22,23.161 H 995.09 V 86.9023 h 9.54 z m 0,39.239 h 23.82 c 4.72,0 12.7,-1.079 12.7,-14.399 0,-12.723 -7.38,-14.883 -14.38,-14.883 h -22.14 z m 113.44,-65.8793 h -42.6 v 28.8003 h 38.66 v 10.317 h -38.66 v 26.402 h 41.92 v 10.321 h -51.46 V 86.9023 h 52.14 z m 59.36,6.2383 h -0.2 l -35.34,69.602 h -11.3 V 86.9023 h 9.24 V 156.5 h 0.2 l 35.92,-69.5977 h 10.71 v 86.1607 h -9.23 z m 18.1,59.281 h 23.92 V 86.9023 h 9.54 v 75.8397 h 23.9 v 10.321 h -57.36 z m 148.97,-32.758 c 0,-20.281 -9.23,-35.0426 -24.59,-35.0426 -15.36,0 -24.61,14.7616 -24.61,35.0426 0,20.278 9.25,35.039 24.61,35.039 15.36,0 24.59,-14.761 24.59,-35.039 z m 9.85,0 c 0,18.598 -8.06,45.356 -34.44,45.356 -26.38,0 -34.44,-26.758 -34.44,-45.356 0,-18.601 8.06,-45.3824 34.44,-45.3824 26.38,0 34.44,26.7814 34.44,45.3824 z m 22.04,-6.121 h 23.13 c 11.4,0 12.59,-8.281 12.59,-15.359 0,-3.242 0.29,-16.3204 1.68,-21.6017 h 11.69 v 1.918 c -2.95,2.043 -3.44,3.8438 -3.53,8.6406 l -0.61,15.6021 c -0.38,12 -4.39,14.16 -8.43,16.199 4.51,3.242 9.83,7.922 9.83,20.64 0,18.239 -11.61,23.161 -23.22,23.161 h -32.68 V 86.9023 h 9.55 z m 0,39.239 h 23.82 c 4.72,0 12.7,-1.079 12.7,-14.399 0,-12.723 -7.39,-14.883 -14.39,-14.883 h -22.13 z m 127.13,-51.118 6.98,-25.0817 h 10.45 l -25.59,86.1607 h -10.84 l -26.56,-86.1607 h 9.84 l 7.38,25.0817 z m -25.38,10.317 11.3,37.922 h 0.2 l 10.45,-37.922 z m 52.06,-35.3987 h 28.25 c 23.21,0 30.09,24.9567 30.09,44.2817 0,24.839 -11.32,41.879 -29.72,41.879 h -28.62 z m 9.54,76.1997 h 17.8 c 13,0 21.16,-10.922 21.16,-32.641 0,-21.719 -8.06,-33.5977 -20.46,-33.5977 h -18.5 z m 107.34,9.961 v -54.481 c 0,-18.7187 -9.84,-23.6406 -18.6,-23.6406 -8.56,0 -17.9,5.1606 -17.9,23.8826 v 54.239 h -9.54 v -57.481 c 0,-16.0781 8.16,-30.9804 27.14,-30.9804 19.4,0 28.44,14.9023 28.44,32.5394 v 55.922 z m 34.24,0 h -9.54 V 86.9023 h 45.36 v 10.3204 h -35.82 z m 25.88,-10.321 h 23.92 V 86.9023 h 9.54 v 75.8397 h 23.9 v 10.321 h -57.36 z m 124.38,-39.722 h 22.04 c 0,-9.239 -1.58,-16.918 -7.78,-22.918 -5.2,-5.0395 -10.92,-5.52 -14.46,-5.52 -18.8,0 -23.52,18 -23.52,35.52 0,22.562 10.44,34.921 23.12,34.921 7.78,0 18.12,-3.121 21.16,-18.121 h 9.26 c -2.08,19.321 -16.74,28.438 -29.92,28.438 -23.04,0 -33.46,-23.637 -33.46,-44.637 0,-9.121 0.3,-23.883 11.12,-36.3592 3.64,-4.3204 9.54,-9.7422 21.64,-9.7422 9.66,0 18.52,5.3007 23.34,13.4609 l 2.26,-11.1602 h 6.2 V 132.98 h -31 z m 92.1,50.043 v -54.481 c 0,-18.7187 -9.84,-23.6406 -18.6,-23.6406 -8.56,0 -17.9,5.1606 -17.9,23.8826 v 54.239 h -9.54 v -57.481 c 0,-16.0781 8.16,-30.9804 27.14,-30.9804 19.4,0 28.44,14.9023 28.44,32.5394 v 55.922 z m 59.36,-61.079 6.98,-25.0817 h 10.44 l -25.58,86.1607 h -10.84 l -26.56,-86.1607 h 9.84 l 7.38,25.0817 z m -25.38,10.317 11.3,37.922 h 0.2 l 10.44,-37.922 z m 62.28,1.562 h 23.14 c 11.4,0 12.58,-8.281 12.58,-15.359 0,-3.242 0.3,-16.3204 1.68,-21.6017 h 11.7 v 1.918 c -2.96,2.043 -3.44,3.8438 -3.54,8.6406 l -0.61,15.6021 c -0.37,12 -4.39,14.16 -8.43,16.199 4.52,3.242 9.84,7.922 9.84,20.64 0,18.239 -11.62,23.161 -23.22,23.161 H 2010.4 V 86.9023 h 9.54 z m 0,39.239 h 23.82 c 4.72,0 12.7,-1.079 12.7,-14.399 0,-12.723 -7.39,-14.883 -14.38,-14.883 h -22.14 z m 60.81,-76.1997 H 2109 c 23.21,0 30.09,24.9567 30.09,44.2817 0,24.839 -11.31,41.879 -29.71,41.879 h -28.63 z m 9.55,76.1997 h 17.8 c 12.99,0 21.16,-10.922 21.16,-32.641 0,-21.719 -8.06,-33.5977 -20.46,-33.5977 h -18.5 z m 72.01,9.961 h -9.53 V 86.9023 h 9.53 z m 55.8,-61.079 6.99,-25.0817 h 10.44 l -25.58,86.1607 h -10.84 l -26.57,-86.1607 h 9.84 l 7.39,25.0817 z m -25.38,10.317 11.31,37.922 h 0.19 l 10.45,-37.922 z m 98.41,-18.84 h -0.21 l -35.34,69.602 h -11.3 V 86.9023 h 9.24 V 156.5 h 0.2 l 35.93,-69.5977 h 10.71 v 86.1607 h -9.23 v -69.602"
       style="fill:#231f20;fill-opacity:1;fill-rule:evenodd;stroke:none"
       transform="matrix(0.13333333,0,0,-0.13333333,0,78.666667)" />
    <path
       id="path5"
       d="m 2312.54,510.855 c 3.08,-3.292 4.73,-7.078 4.73,-11.789 0,-4.461 -1.65,-8.468 -4.73,-11.769 -3.29,-3.297 -7.3,-4.949 -11.77,-4.949 -4.71,0 -8.48,1.652 -11.79,4.949 -3.28,3.301 -4.93,7.308 -4.93,11.769 0,4.711 1.65,8.497 4.93,11.789 3.31,3.297 7.08,4.95 11.79,4.95 4.47,0 8.48,-1.653 11.77,-4.95 z m -33.68,0.473 c -2.83,-4.48 -4.94,-9.191 -6.13,-14.367 -1.87,7.297 -3.75,12.242 -5.89,15.082 -3.76,4.934 -7.99,8.703 -12.71,11.297 4.94,3.07 11.55,4.48 19.79,4 8.95,-0.469 14.84,-1.875 17.9,-4.477 -5.19,-2.582 -9.42,-6.363 -12.96,-11.535 z m 4.73,-42.16 c 0,-2.832 -1.19,-5.422 -3.32,-7.551 -2.1,-2.109 -4.71,-3.297 -7.54,-3.297 -3.05,0 -5.65,1.188 -7.76,3.297 -2.12,2.129 -3.07,4.719 -3.07,7.551 0,3.043 0.95,5.648 3.07,7.77 2.11,2.109 4.71,3.066 7.76,3.066 2.83,0 5.44,-0.957 7.54,-3.066 2.13,-2.122 3.32,-4.727 3.32,-7.77 z m 12.95,1.176 c 7.3,1.867 12.23,3.765 15.07,5.886 4.94,3.774 8.71,8.012 11.31,12.715 3.06,-4.945 4.48,-11.773 4.01,-19.777 -0.48,-8.73 -2.13,-14.855 -4.48,-17.91 -2.6,5.187 -6.36,9.437 -11.56,12.722 -4.47,3.055 -9.18,5.188 -14.35,6.364 z m -4.25,-52.289 c -4.95,-2.828 -11.53,-4.012 -19.56,-3.778 -8.94,0.473 -15.05,2.121 -17.89,4.481 4.94,2.586 9.18,6.347 12.71,11.539 2.83,4.476 4.96,9.183 6.13,14.363 1.88,-7.308 4,-12.254 5.89,-15.082 4.02,-4.937 8.01,-8.945 12.72,-11.523 z m -58.18,57.941 c 4.48,-3.07 9.42,-5.18 14.61,-6.355 -7.3,-1.895 -12.25,-3.774 -15.08,-5.895 -5.18,-3.777 -8.95,-8.004 -11.55,-12.726 -3.05,5.187 -4.23,11.777 -3.76,19.796 0.46,8.95 1.88,14.832 4.24,17.899 2.59,-5.188 6.59,-9.422 11.54,-12.719 z m -6.37,22.391 c 0,4.699 1.65,8.699 4.96,11.996 3.3,3.305 7.06,4.949 11.77,4.949 4.71,0 8.72,-1.644 11.78,-4.949 3.3,-3.297 4.95,-7.297 4.95,-11.996 0,-4.496 -1.65,-8.485 -4.95,-11.793 -3.06,-3.067 -7.07,-4.719 -11.78,-4.719 -4.71,0 -8.47,1.652 -11.77,4.719 -3.31,3.308 -4.96,7.297 -4.96,11.793 z m 71.85,-38.653 c 4.72,0 8.48,-1.636 11.78,-4.937 3.3,-3.067 4.94,-7.063 4.94,-11.781 0,-4.477 -1.64,-8.481 -4.94,-11.786 -3.3,-3.304 -7.06,-4.945 -11.78,-4.945 -4.7,0 -8.47,1.641 -11.78,4.945 -3.29,3.305 -4.94,7.309 -4.94,11.786 0,4.718 1.65,8.714 4.94,11.781 3.31,3.301 7.08,4.937 11.78,4.937 z m -36.27,-16.015 c 0,-4.707 -1.42,-8.719 -4.71,-12.008 -3.31,-3.063 -7.31,-4.707 -12.02,-4.707 -4.48,0 -8.48,1.644 -11.55,4.707 -3.29,3.289 -4.93,7.301 -4.93,12.008 0,4.469 1.64,8.488 4.93,11.543 3.07,3.539 7.07,5.176 11.55,5.176 4.71,0 8.71,-1.637 12.02,-5.176 3.29,-3.055 4.71,-7.074 4.71,-11.543 z m 175.49,59.367 c -3.29,3.523 -7.08,6.598 -11.55,9.894 -8.01,5.887 -18.13,11.063 -29.92,15.782 -17.43,6.824 -37.44,12.008 -60.53,15.781 -22.61,3.527 -46.4,5.414 -71.38,5.414 -23.54,0 -46.64,-2.352 -68.77,-7.301 -20.73,-4.476 -39.57,-10.836 -56.07,-18.851 -16.01,-7.77 -28.5,-16.242 -37.44,-25.668 -9.2,-9.192 -13.69,-18.371 -13.69,-27.321 0,-8.953 4.97,-18.144 15.09,-27.328 10.13,-9.187 23.79,-17.203 41.22,-24.73 17.9,-7.539 37.92,-13.434 59.84,-17.668 23.78,-4.246 47.82,-6.125 72.07,-5.66 51.37,1.414 93.53,9.195 126.97,24.031 8.73,3.762 16.26,7.769 22.61,12.25 4.95,3.289 9.2,6.828 12.74,10.359 8.24,8.496 12.71,17.196 13.18,26.153 0.71,12.722 -4.01,24.254 -14.37,34.863 z M 2395.7,516.5 c 12.96,-5.883 23.55,-12.242 31.56,-19.066 l 3.3,-2.829 c 7.08,-6.601 11.07,-12.73 12.26,-18.847 h -35.81 c -0.47,7.769 -4.01,15.781 -10.6,23.797 -7.07,8.472 -16.73,16.25 -28.98,23.078 -5.89,3.305 -11.78,6.363 -18.38,8.949 16.97,-3.762 32.52,-8.949 46.65,-15.082 z m -34.16,0 c 11.32,-5.883 19.8,-12.723 26.15,-20.254 5.43,-6.594 8.49,-13.418 9.18,-20.488 h -47.33 c -0.23,9.89 -2.36,19.074 -6.14,28.019 -3.99,8.961 -9.42,16.969 -16.72,23.809 l -2.82,2.824 c 13.89,-3.297 26.62,-8.015 37.68,-13.91 z m -166.76,-40.27 h -46.42 c 0.95,6.821 4.25,13.422 9.9,20.016 6.59,7.531 15.54,14.137 27.32,20.254 9.9,5.195 20.97,9.195 33.21,12.496 l -1.41,-1.41 c -7.07,-6.84 -12.72,-14.848 -16.49,-23.809 -4,-8.699 -5.89,-17.89 -6.11,-27.547 z m -78.93,20.497 c 8.48,8.23 20.51,15.316 35.58,21.906 13.89,5.648 29.2,10.363 45.71,13.894 -7.31,-2.832 -14.14,-6.117 -20.52,-9.894 -12.48,-6.828 -21.9,-14.606 -28.97,-23.078 -6.58,-8.016 -10.12,-15.555 -10.6,-23.325 h -34.15 c 1.65,7.067 6.14,13.899 12.95,20.497 z m 37.22,-70.442 c -16.24,6.371 -28.74,13.422 -37.92,21.203 -6.83,6.125 -10.83,12.246 -12.25,18.133 h 35.11 c 1.4,-5.887 4.47,-11.531 9.17,-17.433 6.84,-8.481 16.26,-16.25 28.27,-23.547 7.78,-4.711 16.5,-8.719 25.91,-12.246 -17.67,3.527 -33.68,8 -48.29,13.89 z m 32.75,2.363 c -11.78,5.887 -20.97,12.719 -27.56,20.02 -4.72,5.645 -7.77,11.301 -9.2,16.953 h 46.18 c 0.94,-6.82 2.83,-13.66 5.65,-20.008 3.77,-8.957 9.42,-16.965 16.49,-24.035 2.59,-2.351 5.19,-4.707 8.25,-6.828 -14.84,3.527 -28.03,8.004 -39.81,13.898 z m 87.39,-20.738 c -18.14,0 -33.69,6.367 -46.64,19.32 -12.71,12.958 -19.31,28.512 -19.31,46.645 0,8.953 1.87,17.434 5.17,25.68 3.53,7.777 8.25,14.836 14.14,20.726 12.95,12.957 28.5,19.551 46.64,19.551 18.61,0 34.16,-6.121 46.64,-18.137 12.95,-12.492 19.33,-28.507 19.33,-47.82 0,-18.133 -6.38,-33.687 -19.33,-46.645 -12.95,-12.953 -28.51,-19.32 -46.64,-19.32 z m 43.1,5.418 10.37,8.25 c 7.3,7.07 12.73,15.078 16.72,24.035 2.6,6.348 4.48,12.95 5.42,19.785 h 47.59 c -1.42,-5.664 -4.24,-11.085 -8.72,-16.73 -6.12,-7.535 -14.6,-14.133 -25.91,-20.02 -11.07,-5.894 -24.03,-10.593 -38.63,-13.898 z m 114.49,34.86 -3.54,-3.059 c -7.76,-6.59 -17.89,-12.723 -30.85,-18.125 -14.84,-6.371 -32.27,-11.313 -52.07,-15.082 l -1.88,-0.242 c 8.25,3.07 16.02,6.843 23.32,11.074 12.73,7.297 22.62,15.785 30.16,24.734 4.72,6.125 8.24,12.02 9.89,17.91 h 36.28 c -1.89,-5.89 -5.65,-11.55 -11.31,-17.21"
       style="fill:#231f20;fill-opacity:1;fill-rule:evenodd;stroke:none"
       transform="matrix(0.13333333,0,0,-0.13333333,0,78.666667)" />
    <path
       id="path6"
       d="M 2664.63,148.035 V 85.0859 h 7.92 v 26.6411 h 15.71 c 14.38,0 16.12,-5.02 16.12,-14.9575 0.28,-7.9257 0.73,-9.8125 1.88,-11.6836 h 7.91 c -1.44,2.5977 -1.44,3.8868 -2.02,14.5391 -0.29,8.07 -1.86,13.254 -10.5,15.715 v 0.277 c 8.48,2.016 11.65,8.363 11.65,15.258 0,17.16 -18.28,17.16 -22.16,17.16 z m 7.92,-7.344 h 17.29 c 4.17,0 15.54,0 15.54,-10.238 0,-11.527 -12.82,-11.527 -16.98,-11.527 h -15.85 z m 15.71,31.379 c -30.98,0 -55.19,-25.062 -55.19,-55.015 0,-30.098 24.36,-55.0237 55.19,-55.0237 29.95,0 54.85,24.5 54.85,55.0237 0,30.113 -24.34,55.015 -54.85,55.015 z m -0.17,-7.34 c 26.64,0 47.09,-21.898 47.09,-47.675 0,-26.4808 -21.16,-47.6487 -47.09,-47.6487 -26.33,0 -47.07,21.582 -47.07,47.6487 0,25.777 20.29,47.675 47.07,47.675"
       style="fill:#231f20;fill-opacity:1;fill-rule:evenodd;stroke:none"
       transform="matrix(0.13333333,0,0,-0.13333333,0,78.666667)" />
  </g>
</svg>
